<?xml version="1.0" encoding="UTF-8" standalone="no"?>
<!DOCTYPE svg PUBLIC "-//W3C//DTD SVG 1.1//EN" "http://www.w3.org/Graphics/SVG/1.1/DTD/svg11.dtd">
<svg version="1.1" xmlns="http://www.w3.org/2000/svg" xmlns:xlink="http://www.w3.org/1999/xlink" preserveAspectRatio="xMidYMid meet" viewBox="0 0 640 640" width="120" height="120"><defs><path d="M159.32 4C122.14 4 91.72 34.42 91.72 71.6C91.72 73.14 91.72 80.8 91.72 94.61C246.44 94.61 332.4 94.61 349.59 94.61C386.77 94.61 417.19 125.03 417.19 162.21C417.19 173.45 417.19 229.63 417.19 330.76C433.51 330.76 442.58 330.76 444.39 330.76C481.58 330.76 512 300.34 512 263.15C512 244 512 90.76 512 71.6C512 34.42 481.58 4 444.39 4C444.39 4 187.83 4 159.32 4Z" id="aa59jtLVP"></path><path d="M111.39 91.52C104.55 91.52 97.95 92.55 91.72 94.46C91.72 94.47 91.72 94.52 91.72 94.61C246.44 94.61 332.4 94.61 349.59 94.61C386.77 94.61 417.19 125.03 417.19 162.21C417.19 173.45 417.19 229.63 417.19 330.76C433.51 330.76 442.58 330.76 444.39 330.76C451.23 330.76 457.83 329.72 464.07 327.81C464.07 310.94 464.07 175.99 464.07 159.12C464.07 121.94 433.64 91.51 396.46 91.51C339.45 91.51 139.9 91.52 111.39 91.52Z" id="a1d6pKR1FC"></path><path d="M67.61 91.52C30.42 91.52 0 121.94 0 159.12C0 178.28 0 331.52 0 350.67C0 387.85 30.42 418.28 67.61 418.28C84.72 418.28 221.59 418.28 238.7 418.28C246.04 418.28 251.51 425.1 249.84 432.24C245.3 451.56 238.36 471.99 228.09 492.93C223.48 502.33 233.97 511.9 242.87 506.38C268.62 490.45 305.26 463.77 336.12 426.07C340.17 421.11 346.27 418.28 352.68 418.28C389.86 418.28 420.28 387.85 420.28 350.67C420.28 331.52 420.28 178.27 420.28 159.12C420.28 121.94 389.86 91.51 352.68 91.51C352.68 91.51 96.11 91.52 67.61 91.52Z" id="aUMMqTpRz"></path><path d="M282.49 418.28C278.11 418.28 243.08 418.28 238.7 418.28C246.04 418.28 251.51 425.1 249.84 432.24C245.3 451.56 238.36 471.99 228.09 492.93C223.48 502.33 233.97 511.9 242.87 506.38C252.75 500.27 264.24 492.57 276.38 483.28C284.21 465.71 289.78 448.58 293.62 432.24C295.3 425.1 289.82 418.28 282.49 418.28Z" id="c2dRwr4KZA"></path><path d="M43.78 159.12C43.78 121.94 74.21 91.51 111.39 91.51C107.01 91.51 71.98 91.51 67.61 91.51C30.42 91.51 0 121.94 0 159.12C0 178.28 0 331.52 0 350.67C0 387.85 30.42 418.28 67.61 418.28C71.98 418.28 107.01 418.28 111.39 418.28C74.21 418.28 43.78 387.85 43.78 350.67C43.78 312.36 43.78 178.28 43.78 159.12Z" id="a4bX1a0cTi"></path><path d="M93.71 237.96C81.32 237.96 71.28 248.01 71.28 260.4C71.28 272.79 81.32 282.83 93.71 282.83C106.1 282.83 116.15 272.79 116.15 260.4C116.15 248.01 106.1 237.96 93.71 237.96Z" id="b5BGRcwCkF"></path><path d="M166.17 237.96C153.78 237.96 143.74 248.01 143.74 260.4C143.74 272.79 153.78 282.83 166.17 282.83C178.56 282.83 188.61 272.79 188.61 260.4C188.61 248.01 178.56 237.96 166.17 237.96Z" id="d7QjunvB59"></path><path d="M238.63 237.96C226.24 237.96 216.2 248.01 216.2 260.4C216.2 272.79 226.24 282.83 238.63 282.83C251.02 282.83 261.07 272.79 261.07 260.4C261.07 248.01 251.02 237.96 238.63 237.96Z" id="aMvA54ehw"></path><path d="M311.09 237.96C298.7 237.96 288.66 248.01 288.66 260.4C288.66 272.79 298.7 282.83 311.09 282.83C323.48 282.83 333.53 272.79 333.53 260.4C333.53 248.01 323.48 237.96 311.09 237.96Z" id="bJ8CnJaDW"></path><path d="M104.93 240.97C101.63 239.06 97.8 237.96 93.71 237.96C81.32 237.96 71.28 248.01 71.28 260.4C71.28 272.79 81.32 282.83 93.71 282.83C97.8 282.83 101.63 281.73 104.93 279.82C98.23 275.94 93.71 268.7 93.71 260.4C93.71 252.1 98.23 244.85 104.93 240.97Z" id="bi8y6YnRv"></path><path d="M177.39 240.97C174.09 239.06 170.26 237.96 166.17 237.96C153.78 237.96 143.74 248.01 143.74 260.4C143.74 272.79 153.78 282.83 166.17 282.83C170.26 282.83 174.09 281.73 177.39 279.82C170.69 275.94 166.17 268.7 166.17 260.4C166.17 252.1 170.69 244.85 177.39 240.97Z" id="e3FrQHtYMj"></path><path d="M249.85 240.97C246.55 239.06 242.72 237.96 238.63 237.96C226.24 237.96 216.2 248.01 216.2 260.4C216.2 272.79 226.24 282.83 238.63 282.83C242.72 282.83 246.55 281.73 249.85 279.82C243.15 275.94 238.63 268.7 238.63 260.4C238.63 252.1 243.15 244.85 249.85 240.97Z" id="ah5XICaFo"></path><path d="M322.31 240.97C319.01 239.06 315.18 237.96 311.09 237.96C298.7 237.96 288.66 248.01 288.66 260.4C288.66 272.79 298.7 282.83 311.09 282.83C315.18 282.83 319.01 281.73 322.31 279.82C315.61 275.94 311.09 268.7 311.09 260.4C311.09 252.1 315.61 244.85 322.31 240.97Z" id="ciRYPicLs"></path></defs><g><g><g><use xlink:href="#aa59jtLVP" opacity="1" fill="#6c7ed6" fill-opacity="1"></use><g><use xlink:href="#aa59jtLVP" opacity="1" fill-opacity="0" stroke="#000000" stroke-width="1" stroke-opacity="0"></use></g></g><g><use xlink:href="#a1d6pKR1FC" opacity="1" fill="#4f67d2" fill-opacity="1"></use><g><use xlink:href="#a1d6pKR1FC" opacity="1" fill-opacity="0" stroke="#000000" stroke-width="1" stroke-opacity="0"></use></g></g><g><use xlink:href="#aUMMqTpRz" opacity="1" fill="#60b8fe" fill-opacity="1"></use><g><use xlink:href="#aUMMqTpRz" opacity="1" fill-opacity="0" stroke="#000000" stroke-width="1" stroke-opacity="0"></use></g></g><g><use xlink:href="#c2dRwr4KZA" opacity="1" fill="#23a8fe" fill-opacity="1"></use><g><use xlink:href="#c2dRwr4KZA" opacity="1" fill-opacity="0" stroke="#000000" stroke-width="1" stroke-opacity="0"></use></g></g><g><use xlink:href="#a4bX1a0cTi" opacity="1" fill="#23a8fe" fill-opacity="1"></use><g><use xlink:href="#a4bX1a0cTi" opacity="1" fill-opacity="0" stroke="#000000" stroke-width="1" stroke-opacity="0"></use></g></g><g><use xlink:href="#b5BGRcwCkF" opacity="1" fill="#dfebfa" fill-opacity="1"></use><g><use xlink:href="#b5BGRcwCkF" opacity="1" fill-opacity="0" stroke="#000000" stroke-width="1" stroke-opacity="0"></use></g></g><g><use xlink:href="#d7QjunvB59" opacity="1" fill="#dfebfa" fill-opacity="1"></use><g><use xlink:href="#d7QjunvB59" opacity="1" fill-opacity="0" stroke="#000000" stroke-width="1" stroke-opacity="0"></use></g></g><g><use xlink:href="#aMvA54ehw" opacity="1" fill="#dfebfa" fill-opacity="1"></use><g><use xlink:href="#aMvA54ehw" opacity="1" fill-opacity="0" stroke="#000000" stroke-width="1" stroke-opacity="0"></use></g></g><g><use xlink:href="#bJ8CnJaDW" opacity="1" fill="#dfebfa" fill-opacity="1"></use><g><use xlink:href="#bJ8CnJaDW" opacity="1" fill-opacity="0" stroke="#000000" stroke-width="1" stroke-opacity="0"></use></g></g><g><use xlink:href="#bi8y6YnRv" opacity="1" fill="#b1dbfc" fill-opacity="1"></use><g><use xlink:href="#bi8y6YnRv" opacity="1" fill-opacity="0" stroke="#000000" stroke-width="1" stroke-opacity="0"></use></g></g><g><use xlink:href="#e3FrQHtYMj" opacity="1" fill="#b1dbfc" fill-opacity="1"></use><g><use xlink:href="#e3FrQHtYMj" opacity="1" fill-opacity="0" stroke="#000000" stroke-width="1" stroke-opacity="0"></use></g></g><g><use xlink:href="#ah5XICaFo" opacity="1" fill="#b1dbfc" fill-opacity="1"></use><g><use xlink:href="#ah5XICaFo" opacity="1" fill-opacity="0" stroke="#000000" stroke-width="1" stroke-opacity="0"></use></g></g><g><use xlink:href="#ciRYPicLs" opacity="1" fill="#b1dbfc" fill-opacity="1"></use><g><use xlink:href="#ciRYPicLs" opacity="1" fill-opacity="0" stroke="#000000" stroke-width="1" stroke-opacity="0"></use></g></g></g></g></svg>