<?xml version="1.0" encoding="UTF-8" standalone="no"?>
<!DOCTYPE svg PUBLIC "-//W3C//DTD SVG 1.1//EN" "http://www.w3.org/Graphics/SVG/1.1/DTD/svg11.dtd">
<svg version="1.1" xmlns="http://www.w3.org/2000/svg" xmlns:xlink="http://www.w3.org/1999/xlink" preserveAspectRatio="xMidYMid meet" viewBox="0 0 640 640" width="120" height="120"><defs><path d="M0 256C0 397.16 114.84 512 256 512C397.16 512 512 397.16 512 256C512 114.84 397.16 0 256 0C114.84 0 0 114.84 0 256Z" id="a1tSFMwCvn"></path><path d="M362.67 405.33C374.46 405.33 384 395.78 384 384C384 372.22 374.46 362.67 362.67 362.67C341.33 362.67 170.67 362.67 149.33 362.67C137.54 362.67 128 372.22 128 384C128 395.78 137.54 405.33 149.33 405.33C192 405.33 341.33 405.33 362.67 405.33Z" id="bKd4FfaR9"></path><path d="M244.69 315.31C247.81 318.44 251.9 320 256 320C260.1 320 264.19 318.44 267.31 315.31C274.24 308.37 329.71 252.91 336.64 245.97C346.71 235.95 339.61 218.67 325.33 218.67C322.13 218.67 306.13 218.67 277.33 218.67C277.33 161.07 277.33 129.07 277.33 122.67C277.33 110.89 267.8 101.33 256 101.33C244.2 101.33 234.67 110.89 234.67 122.67C234.67 129.07 234.67 161.07 234.67 218.67C205.87 218.67 189.87 218.67 186.67 218.67C172.39 218.67 165.29 235.95 175.36 245.97C189.23 259.84 230.83 301.44 244.69 315.31Z" id="c4b2V8TgIY"></path><path d="M256 0C114.84 0 0 114.84 0 256C0 397.16 114.84 512 256 512C256 504.89 256 469.33 256 405.33C192 405.33 156.44 405.33 149.33 405.33C137.54 405.33 128 395.78 128 384C128 372.22 137.54 362.67 149.33 362.67C156.44 362.67 192 362.67 256 362.67C256 337.07 256 322.84 256 320C251.9 320 247.81 318.44 244.69 315.31C237.76 308.37 182.29 252.91 175.36 245.97C165.29 235.95 172.39 218.67 186.67 218.67C189.87 218.67 205.87 218.67 234.67 218.67C234.67 161.07 234.67 129.07 234.67 122.67C234.67 110.89 244.2 101.33 256 101.33C256 81.07 256 20.27 256 0Z" id="aOwrxMXhS"></path><path d="M256 362.67C192 362.67 156.44 362.67 149.33 362.67C137.54 362.67 128 372.22 128 384C128 395.78 137.54 405.33 149.33 405.33C156.44 405.33 192 405.33 256 405.33L256 362.67Z" id="a77PypvRC"></path><path d="M256 101.33C244.2 101.33 234.67 110.89 234.67 122.67C234.67 129.07 234.67 161.07 234.67 218.67C205.87 218.67 189.87 218.67 186.67 218.67C172.39 218.67 165.29 235.95 175.36 245.97C182.29 252.91 237.76 308.37 244.69 315.31C247.81 318.44 251.9 320 256 320C256 276.27 256 145.07 256 101.33Z" id="a4hhFNJ3G"></path></defs><g><g><g><use xlink:href="#a1tSFMwCvn" opacity="1" fill="#00bcd4" fill-opacity="1"></use><g><use xlink:href="#a1tSFMwCvn" opacity="1" fill-opacity="0" stroke="#000000" stroke-width="1" stroke-opacity="0"></use></g></g><g><use xlink:href="#bKd4FfaR9" opacity="1" fill="#ffffff" fill-opacity="1"></use><g><use xlink:href="#bKd4FfaR9" opacity="1" fill-opacity="0" stroke="#000000" stroke-width="1" stroke-opacity="0"></use></g></g><g><use xlink:href="#c4b2V8TgIY" opacity="1" fill="#ffffff" fill-opacity="1"></use><g><use xlink:href="#c4b2V8TgIY" opacity="1" fill-opacity="0" stroke="#000000" stroke-width="1" stroke-opacity="0"></use></g></g><g><use xlink:href="#aOwrxMXhS" opacity="1" fill="#00a4b9" fill-opacity="1"></use><g><use xlink:href="#aOwrxMXhS" opacity="1" fill-opacity="0" stroke="#000000" stroke-width="1" stroke-opacity="0"></use></g></g><g><use xlink:href="#a77PypvRC" opacity="1" fill="#dedede" fill-opacity="1"></use><g><use xlink:href="#a77PypvRC" opacity="1" fill-opacity="0" stroke="#000000" stroke-width="1" stroke-opacity="0"></use></g></g><g><use xlink:href="#a4hhFNJ3G" opacity="1" fill="#dedede" fill-opacity="1"></use><g><use xlink:href="#a4hhFNJ3G" opacity="1" fill-opacity="0" stroke="#000000" stroke-width="1" stroke-opacity="0"></use></g></g></g></g></svg>