<?xml version="1.0" encoding="UTF-8" standalone="no"?>
<!DOCTYPE svg PUBLIC "-//W3C//DTD SVG 1.1//EN" "http://www.w3.org/Graphics/SVG/1.1/DTD/svg11.dtd">
<svg version="1.1" xmlns="http://www.w3.org/2000/svg" xmlns:xlink="http://www.w3.org/1999/xlink" preserveAspectRatio="xMidYMid meet" viewBox="0 0 640 640" width="120" height="120"><defs><path d="M10 454L502 454L502 502L10 502L10 454Z" id="e6cmjaIau4"></path><path d="M40 56L472 56L472 454L40 454L40 56Z" id="c3A7y7L19"></path><path d="M184 384C184 388.67 184 412 184 454L328 454C328 412 328 388.67 328 384C328 344.24 295.76 312 256 312C216.24 312 184 344.24 184 384Z" id="a1QJqzqruo"></path><path d="M123.67 10L388.33 10L388.33 56L123.67 56L123.67 10Z" id="a4NwBXht07"></path><path d="M88 120L136 120L136 168L88 168L88 120Z" id="acvCRV12H"></path><path d="M184 120L232 120L232 168L184 168L184 120Z" id="a2iRF9IBdx"></path><path d="M280 120L328 120L328 168L280 168L280 120Z" id="b1wbzp4uej"></path><path d="M376 120L424 120L424 168L376 168L376 120Z" id="dXVt7IqE5"></path><path d="M88 216L136 216L136 264L88 264L88 216Z" id="bAo7vIQpw"></path><path d="M184 216L232 216L232 264L184 264L184 216Z" id="bRMvxXVQ"></path><path d="M280 216L328 216L328 264L280 264L280 216Z" id="b2GLH44Uc6"></path><path d="M376 216L424 216L424 264L376 264L376 216Z" id="b3HiH1XH7O"></path><path d="M88 312L136 312L136 360L88 360L88 312Z" id="b48OYCmw1Z"></path><path d="M376 312L424 312L424 360L376 360L376 312Z" id="aQf27ImV7"></path><path d="M482 444C482 211.2 482 81.87 482 56C482 50.48 477.52 46 472 46C467.09 46 442.53 46 398.33 46C398.33 24.4 398.33 12.4 398.33 10C398.33 4.48 393.85 0 388.33 0C361.87 0 150.13 0 123.67 0C118.14 0 113.67 4.48 113.67 10C113.67 12.4 113.67 24.4 113.67 46C69.47 46 44.91 46 40 46C34.48 46 30 50.48 30 56C30 81.87 30 211.2 30 444C18 444 11.33 444 10 444C4.48 444 0 448.48 0 454C0 458.8 0 497.2 0 502C0 507.52 4.48 512 10 512C30.1 512 190.9 512 211 512C216.53 512 221 507.52 221 502C221 496.48 216.53 492 211 492C198.27 492 134.6 492 20 492L20 464L492 464L492 492C377.4 492 313.73 492 301 492C295.48 492 291 496.48 291 502C291 507.52 295.48 512 301 512C321.1 512 481.9 512 502 512C507.52 512 512 507.52 512 502C512 497.2 512 458.8 512 454C512 448.48 507.52 444 502 444C499.33 444 492.67 444 482 444ZM133.67 20L378.33 20L378.33 46L133.67 46L133.67 20ZM246 444L194 444C194 408 194 388 194 384C194 353.22 216.55 327.62 246 322.82C246 338.98 246 379.37 246 444ZM266 444C266 371.29 266 330.9 266 322.82C295.45 327.62 318 353.22 318 384C318 388 318 408 318 444L266 444ZM338 444C338 408 338 388 338 384C338 338.79 301.22 302 256 302C210.78 302 174 338.79 174 384C174 388 174 408 174 444L50 444L50 66L462 66L462 444L338 444Z" id="bfaULOuCb"></path><path d="M88 110C82.48 110 78 114.48 78 120C78 124.8 78 163.2 78 168C78 173.52 82.48 178 88 178C92.8 178 131.2 178 136 178C141.52 178 146 173.52 146 168C146 163.2 146 124.8 146 120C146 114.48 141.52 110 136 110C126.4 110 92.8 110 88 110ZM126 158L98 158L98 130L126 130L126 158Z" id="b1zLmMfatJ"></path><path d="M184 110C178.48 110 174 114.48 174 120C174 124.8 174 163.2 174 168C174 173.52 178.48 178 184 178C188.8 178 227.2 178 232 178C237.52 178 242 173.52 242 168C242 163.2 242 124.8 242 120C242 114.48 237.52 110 232 110C222.4 110 188.8 110 184 110ZM222 158L194 158L194 130L222 130L222 158Z" id="cppn7mclL"></path><path d="M280 110C274.48 110 270 114.48 270 120C270 124.8 270 163.2 270 168C270 173.52 274.48 178 280 178C284.8 178 323.2 178 328 178C333.52 178 338 173.52 338 168C338 163.2 338 124.8 338 120C338 114.48 333.52 110 328 110C318.4 110 284.8 110 280 110ZM318 158L290 158L290 130L318 130L318 158Z" id="borjAD9wd"></path><path d="M376 110C370.48 110 366 114.48 366 120C366 124.8 366 163.2 366 168C366 173.52 370.48 178 376 178C380.8 178 419.2 178 424 178C429.52 178 434 173.52 434 168C434 163.2 434 124.8 434 120C434 114.48 429.52 110 424 110C414.4 110 380.8 110 376 110ZM414 158L386 158L386 130L414 130L414 158Z" id="a16pXfd5yT"></path><path d="M88 206C82.48 206 78 210.48 78 216C78 220.8 78 259.2 78 264C78 269.52 82.48 274 88 274C92.8 274 131.2 274 136 274C141.52 274 146 269.52 146 264C146 259.2 146 220.8 146 216C146 210.48 141.52 206 136 206C126.4 206 92.8 206 88 206ZM126 254L98 254L98 226L126 226L126 254Z" id="b6QncB2k9D"></path><path d="M184 206C178.48 206 174 210.48 174 216C174 220.8 174 259.2 174 264C174 269.52 178.48 274 184 274C188.8 274 227.2 274 232 274C237.52 274 242 269.52 242 264C242 259.2 242 220.8 242 216C242 210.48 237.52 206 232 206C222.4 206 188.8 206 184 206ZM222 254L194 254L194 226L222 226L222 254Z" id="d14bd9nPP"></path><path d="M280 206C274.48 206 270 210.48 270 216C270 220.8 270 259.2 270 264C270 269.52 274.48 274 280 274C284.8 274 323.2 274 328 274C333.52 274 338 269.52 338 264C338 259.2 338 220.8 338 216C338 210.48 333.52 206 328 206C318.4 206 284.8 206 280 206ZM318 254L290 254L290 226L318 226L318 254Z" id="fdNCbJmbk"></path><path d="M376 206C370.48 206 366 210.48 366 216C366 220.8 366 259.2 366 264C366 269.52 370.48 274 376 274C380.8 274 419.2 274 424 274C429.52 274 434 269.52 434 264C434 259.2 434 220.8 434 216C434 210.48 429.52 206 424 206C414.4 206 380.8 206 376 206ZM414 254L386 254L386 226L414 226L414 254Z" id="d7HXaygUqh"></path><path d="M88 302C82.48 302 78 306.48 78 312C78 316.8 78 355.2 78 360C78 365.52 82.48 370 88 370C92.8 370 131.2 370 136 370C141.52 370 146 365.52 146 360C146 355.2 146 316.8 146 312C146 306.48 141.52 302 136 302C126.4 302 92.8 302 88 302ZM126 350L98 350L98 322L126 322L126 350Z" id="cL0OoWXIE"></path><path d="M376 302C370.48 302 366 306.48 366 312C366 316.8 366 355.2 366 360C366 365.52 370.48 370 376 370C380.8 370 419.2 370 424 370C429.52 370 434 365.52 434 360C434 355.2 434 316.8 434 312C434 306.48 429.52 302 424 302C414.4 302 380.8 302 376 302ZM414 350L386 350L386 322L414 322L414 350Z" id="anmIzEUMy"></path><path d="M248.93 494.93C247.07 496.79 246 499.37 246 502C246 504.63 247.07 507.21 248.93 509.07C250.79 510.93 253.37 512 256 512C258.63 512 261.21 510.93 263.07 509.07C264.93 507.21 266 504.63 266 502C266 499.37 264.93 496.79 263.07 494.93C261.21 493.07 258.63 492 256 492C253.37 492 250.79 493.07 248.93 494.93Z" id="al47mBsHo"></path></defs><g><g><g><use xlink:href="#e6cmjaIau4" opacity="1" fill="#cfd3df" fill-opacity="1"></use><g><use xlink:href="#e6cmjaIau4" opacity="1" fill-opacity="0" stroke="#000000" stroke-width="1" stroke-opacity="0"></use></g></g><g><use xlink:href="#c3A7y7L19" opacity="1" fill="#f2cd69" fill-opacity="1"></use><g><use xlink:href="#c3A7y7L19" opacity="1" fill-opacity="0" stroke="#000000" stroke-width="1" stroke-opacity="0"></use></g></g><g><use xlink:href="#a1QJqzqruo" opacity="1" fill="#c7ebfa" fill-opacity="1"></use><g><use xlink:href="#a1QJqzqruo" opacity="1" fill-opacity="0" stroke="#000000" stroke-width="1" stroke-opacity="0"></use></g></g><g><use xlink:href="#a4NwBXht07" opacity="1" fill="#f6da8f" fill-opacity="1"></use><g><use xlink:href="#a4NwBXht07" opacity="1" fill-opacity="0" stroke="#000000" stroke-width="1" stroke-opacity="0"></use></g></g><g><use xlink:href="#acvCRV12H" opacity="1" fill="#cbf4fb" fill-opacity="1"></use><g><use xlink:href="#acvCRV12H" opacity="1" fill-opacity="0" stroke="#000000" stroke-width="1" stroke-opacity="0"></use></g></g><g><use xlink:href="#a2iRF9IBdx" opacity="1" fill="#cbf4fb" fill-opacity="1"></use><g><use xlink:href="#a2iRF9IBdx" opacity="1" fill-opacity="0" stroke="#000000" stroke-width="1" stroke-opacity="0"></use></g></g><g><use xlink:href="#b1wbzp4uej" opacity="1" fill="#cbf4fb" fill-opacity="1"></use><g><use xlink:href="#b1wbzp4uej" opacity="1" fill-opacity="0" stroke="#000000" stroke-width="1" stroke-opacity="0"></use></g></g><g><use xlink:href="#dXVt7IqE5" opacity="1" fill="#cbf4fb" fill-opacity="1"></use><g><use xlink:href="#dXVt7IqE5" opacity="1" fill-opacity="0" stroke="#000000" stroke-width="1" stroke-opacity="0"></use></g></g><g><use xlink:href="#bAo7vIQpw" opacity="1" fill="#cbf4fb" fill-opacity="1"></use><g><use xlink:href="#bAo7vIQpw" opacity="1" fill-opacity="0" stroke="#000000" stroke-width="1" stroke-opacity="0"></use></g></g><g><use xlink:href="#bRMvxXVQ" opacity="1" fill="#cbf4fb" fill-opacity="1"></use><g><use xlink:href="#bRMvxXVQ" opacity="1" fill-opacity="0" stroke="#000000" stroke-width="1" stroke-opacity="0"></use></g></g><g><use xlink:href="#b2GLH44Uc6" opacity="1" fill="#cbf4fb" fill-opacity="1"></use><g><use xlink:href="#b2GLH44Uc6" opacity="1" fill-opacity="0" stroke="#000000" stroke-width="1" stroke-opacity="0"></use></g></g><g><use xlink:href="#b3HiH1XH7O" opacity="1" fill="#cbf4fb" fill-opacity="1"></use><g><use xlink:href="#b3HiH1XH7O" opacity="1" fill-opacity="0" stroke="#000000" stroke-width="1" stroke-opacity="0"></use></g></g><g><use xlink:href="#b48OYCmw1Z" opacity="1" fill="#cbf4fb" fill-opacity="1"></use><g><use xlink:href="#b48OYCmw1Z" opacity="1" fill-opacity="0" stroke="#000000" stroke-width="1" stroke-opacity="0"></use></g></g><g><use xlink:href="#aQf27ImV7" opacity="1" fill="#cbf4fb" fill-opacity="1"></use><g><use xlink:href="#aQf27ImV7" opacity="1" fill-opacity="0" stroke="#000000" stroke-width="1" stroke-opacity="0"></use></g></g><g><use xlink:href="#bfaULOuCb" opacity="1" fill="#000000" fill-opacity="1"></use><g><use xlink:href="#bfaULOuCb" opacity="1" fill-opacity="0" stroke="#000000" stroke-width="1" stroke-opacity="0"></use></g></g><g><use xlink:href="#b1zLmMfatJ" opacity="1" fill="#000000" fill-opacity="1"></use><g><use xlink:href="#b1zLmMfatJ" opacity="1" fill-opacity="0" stroke="#000000" stroke-width="1" stroke-opacity="0"></use></g></g><g><use xlink:href="#cppn7mclL" opacity="1" fill="#000000" fill-opacity="1"></use><g><use xlink:href="#cppn7mclL" opacity="1" fill-opacity="0" stroke="#000000" stroke-width="1" stroke-opacity="0"></use></g></g><g><use xlink:href="#borjAD9wd" opacity="1" fill="#000000" fill-opacity="1"></use><g><use xlink:href="#borjAD9wd" opacity="1" fill-opacity="0" stroke="#000000" stroke-width="1" stroke-opacity="0"></use></g></g><g><use xlink:href="#a16pXfd5yT" opacity="1" fill="#000000" fill-opacity="1"></use><g><use xlink:href="#a16pXfd5yT" opacity="1" fill-opacity="0" stroke="#000000" stroke-width="1" stroke-opacity="0"></use></g></g><g><use xlink:href="#b6QncB2k9D" opacity="1" fill="#000000" fill-opacity="1"></use><g><use xlink:href="#b6QncB2k9D" opacity="1" fill-opacity="0" stroke="#000000" stroke-width="1" stroke-opacity="0"></use></g></g><g><use xlink:href="#d14bd9nPP" opacity="1" fill="#000000" fill-opacity="1"></use><g><use xlink:href="#d14bd9nPP" opacity="1" fill-opacity="0" stroke="#000000" stroke-width="1" stroke-opacity="0"></use></g></g><g><use xlink:href="#fdNCbJmbk" opacity="1" fill="#000000" fill-opacity="1"></use><g><use xlink:href="#fdNCbJmbk" opacity="1" fill-opacity="0" stroke="#000000" stroke-width="1" stroke-opacity="0"></use></g></g><g><use xlink:href="#d7HXaygUqh" opacity="1" fill="#000000" fill-opacity="1"></use><g><use xlink:href="#d7HXaygUqh" opacity="1" fill-opacity="0" stroke="#000000" stroke-width="1" stroke-opacity="0"></use></g></g><g><use xlink:href="#cL0OoWXIE" opacity="1" fill="#000000" fill-opacity="1"></use><g><use xlink:href="#cL0OoWXIE" opacity="1" fill-opacity="0" stroke="#000000" stroke-width="1" stroke-opacity="0"></use></g></g><g><use xlink:href="#anmIzEUMy" opacity="1" fill="#000000" fill-opacity="1"></use><g><use xlink:href="#anmIzEUMy" opacity="1" fill-opacity="0" stroke="#000000" stroke-width="1" stroke-opacity="0"></use></g></g><g><use xlink:href="#al47mBsHo" opacity="1" fill="#000000" fill-opacity="1"></use><g><use xlink:href="#al47mBsHo" opacity="1" fill-opacity="0" stroke="#000000" stroke-width="1" stroke-opacity="0"></use></g></g></g></g></svg>