<?xml version="1.0" encoding="UTF-8" standalone="no"?>
<!DOCTYPE svg PUBLIC "-//W3C//DTD SVG 1.1//EN" "http://www.w3.org/Graphics/SVG/1.1/DTD/svg11.dtd">
<svg version="1.1" xmlns="http://www.w3.org/2000/svg" xmlns:xlink="http://www.w3.org/1999/xlink" preserveAspectRatio="xMidYMid meet" viewBox="0 0 640 640" width="120" height="120"><defs><path d="M0.45 284.09C17.4 284.09 102.15 284.09 254.71 284.09C254.71 232.95 254.71 204.54 254.71 198.86C254.71 187.39 261.64 177.02 272.23 172.61C282.86 168.21 295.07 170.65 303.2 178.78C314.56 190.14 405.47 281.05 416.83 292.42C427.94 303.52 427.94 321.47 416.83 332.59C405.47 343.95 314.56 434.86 303.2 446.22C295.07 454.35 282.86 456.79 272.23 452.38C261.61 447.98 254.71 437.61 254.71 426.14C254.71 420.45 254.71 392.05 254.71 340.91C102.15 340.91 17.4 340.91 0.45 340.91C14.82 500.17 148.51 625 311.52 625C484.11 625 624.02 485.08 624.02 312.5C624.02 139.91 484.11 0 311.52 0C148.51 0 14.82 124.83 0.45 284.09Z" id="c22bTIhcAQ"></path></defs><g><g><g><use xlink:href="#c22bTIhcAQ" opacity="1" fill="#4caf50" fill-opacity="1"></use><g><use xlink:href="#c22bTIhcAQ" opacity="1" fill-opacity="0" stroke="#000000" stroke-width="1" stroke-opacity="0"></use></g></g></g></g></svg>