<?xml version="1.0" encoding="UTF-8" standalone="no"?>
<!DOCTYPE svg PUBLIC "-//W3C//DTD SVG 1.1//EN" "http://www.w3.org/Graphics/SVG/1.1/DTD/svg11.dtd">
<svg version="1.1" xmlns="http://www.w3.org/2000/svg" xmlns:xlink="http://www.w3.org/1999/xlink" preserveAspectRatio="xMidYMid meet" viewBox="0 0 640 640" width="120" height="120"><defs><path d="M62.14 573.14C62.14 509.76 62.14 474.55 62.14 467.51C62.21 416.06 103.89 374.38 155.34 374.31C163.48 374.31 204.2 374.31 277.5 374.31C281.23 374.31 283.3 374.31 283.71 374.31C385.77 374.73 468.85 292.35 469.28 190.29C469.7 88.22 387.32 5.16 285.25 4.72C183.19 4.29 100.13 86.69 99.69 188.75C99.51 234.22 116.08 278.16 146.27 312.17C64.06 317.04 -0.07 385.17 0 467.51C0 481.18 0 590.54 0 604.21C0 621.37 13.91 635.28 31.07 635.28C67.73 635.28 361.01 635.28 397.67 635.28C414.83 635.28 428.74 621.37 428.74 604.21C428.74 587.05 414.83 573.14 397.67 573.14C352.93 573.14 241.09 573.14 62.14 573.14ZM402.09 193.94C400.29 257.19 350.37 308.56 287.19 312.17C286.22 312.17 278.47 312.17 277.5 312.17C210.31 307.95 159.25 250.05 163.48 182.85C167.48 119.17 219.91 69.35 283.71 68.6C351.02 70.52 404.02 126.63 402.09 193.94Z" id="c2hBTzhyBE"></path><path d="M422.52 498.58C405.36 498.58 391.46 484.67 391.46 467.51C391.46 450.35 405.36 436.45 422.52 436.45C441.16 436.45 590.29 436.45 608.93 436.45C626.09 436.45 640 450.35 640 467.51C640 484.67 626.09 498.58 608.93 498.58C571.65 498.58 441.16 498.58 422.52 498.58Z" id="b1UoXWsLO0"></path><path d="M484.66 560.72C484.66 542.08 484.66 392.95 484.66 374.31C484.66 357.15 498.57 343.24 515.73 343.24C532.89 343.24 546.8 357.15 546.8 374.31C546.8 392.95 546.8 542.07 546.8 560.72C546.8 577.88 532.89 591.78 515.73 591.78C498.57 591.78 484.66 577.88 484.66 560.72Z" id="b18ddOoApB"></path></defs><g><g><g><use xlink:href="#c2hBTzhyBE" opacity="1" fill="#ff485a" fill-opacity="1"></use><g><use xlink:href="#c2hBTzhyBE" opacity="1" fill-opacity="0" stroke="#000000" stroke-width="1" stroke-opacity="0"></use></g></g><g><use xlink:href="#b1UoXWsLO0" opacity="1" fill="#ffbbc0" fill-opacity="1"></use><g><use xlink:href="#b1UoXWsLO0" opacity="1" fill-opacity="0" stroke="#000000" stroke-width="1" stroke-opacity="0"></use></g></g><g><use xlink:href="#b18ddOoApB" opacity="1" fill="#ffbbc0" fill-opacity="1"></use><g><use xlink:href="#b18ddOoApB" opacity="1" fill-opacity="0" stroke="#000000" stroke-width="1" stroke-opacity="0"></use></g></g></g></g></svg>